<?xml version="1.0" encoding="UTF-8" standalone="no"?>
<!-- Created with Inkscape (http://www.inkscape.org/) -->

<svg
   width="90"
   height="110"
   viewBox="0 0 23.812501 29.104165"
   version="1.1"
   id="svg1"
   xml:space="preserve"
   inkscape:version="1.3.2 (091e20e, 2023-11-25, custom)"
   sodipodi:docname="Clarividente.svg"
   xmlns:inkscape="http://www.inkscape.org/namespaces/inkscape"
   xmlns:sodipodi="http://sodipodi.sourceforge.net/DTD/sodipodi-0.dtd"
   xmlns="http://www.w3.org/2000/svg"
   xmlns:svg="http://www.w3.org/2000/svg"><sodipodi:namedview
     id="namedview1"
     pagecolor="#ffffff"
     bordercolor="#cccccc"
     borderopacity="1"
     inkscape:showpageshadow="0"
     inkscape:pageopacity="1"
     inkscape:pagecheckerboard="0"
     inkscape:deskcolor="#d1d1d1"
     inkscape:document-units="mm"
     inkscape:zoom="1.4254587"
     inkscape:cx="43.494771"
     inkscape:cy="114.69992"
     inkscape:window-width="1366"
     inkscape:window-height="705"
     inkscape:window-x="-8"
     inkscape:window-y="-8"
     inkscape:window-maximized="1"
     inkscape:current-layer="layer1" /><defs
     id="defs1" /><g
     inkscape:groupmode="layer"
     id="layer1"
     inkscape:label="Layer 1"><g
       id="g1"
       transform="translate(-9.6518642,-11.879217)"><path
         style="fill:#caebfc"
         d="m 29.486141,32.136339 c 0.341775,-0.363802 0.680939,-0.661459 0.7537,-0.661459 0.07276,0 -0.147342,0.297657 -0.489116,0.661459 -0.341775,0.363802 -0.680939,0.661458 -0.7537,0.661458 -0.07276,0 0.147342,-0.297656 0.489116,-0.661458 z M 12.519059,31.541026 c -0.329107,-0.419644 -0.319749,-0.429002 0.0999,-0.0999 0.254662,0.19972 0.463021,0.408079 0.463021,0.463021 0,0.217761 -0.217272,0.0776 -0.562916,-0.363126 z m -0.197848,-2.382738 c -2.31,-4.527973 -1.105519,-9.491732 3.163757,-13.038087 l 1.422684,-1.181779 -1.272107,1.571052 c -1.404559,1.73463 -2.227867,3.24072 -2.974013,5.440406 -0.630705,1.859358 -0.646026,5.756878 -0.02834,7.209896 0.545358,1.28288 0.342764,1.281914 -0.311979,-0.0015 z m 3.512431,-2.022574 c -0.494771,-0.494771 -0.895963,-1.060318 -0.891538,-1.256771 0.0045,-0.198819 0.132874,-0.122567 0.289586,0.171979 0.154847,0.291042 0.652744,0.856588 1.106439,1.256771 0.453694,0.400182 0.728193,0.727604 0.609997,0.727604 -0.118196,0 -0.619714,-0.404813 -1.114484,-0.899583 z m 11.006666,-0.02646 c 0.341774,-0.363802 0.680939,-0.661458 0.7537,-0.661458 0.07276,0 -0.147342,0.297656 -0.489117,0.661458 -0.341774,0.363802 -0.680939,0.661459 -0.753699,0.661459 -0.07276,0 0.147342,-0.297657 0.489116,-0.661459 z M 9.9889612,24.198839 c 0.00148,-0.873126 0.05088,-1.198415 0.1097658,-0.722866 0.05889,0.475549 0.05767,1.189924 -0.0027,1.5875 -0.06037,0.397576 -0.1085509,0.0085 -0.1070658,-0.864634 z m 4.7525768,0.132291 c 0,-0.654844 0.0516,-0.922734 0.114662,-0.595312 0.06306,0.327422 0.06306,0.863203 0,1.190625 -0.06306,0.327422 -0.114662,0.05953 -0.114662,-0.595313 z m 7.357158,0.63941 c 0.0127,-0.308225 0.07539,-0.370919 0.159853,-0.159853 0.07643,0.190997 0.06703,0.4192 -0.02089,0.507119 -0.08792,0.08792 -0.150453,-0.06835 -0.138965,-0.347266 z m 3.704167,0 c 0.0127,-0.308225 0.07539,-0.370919 0.159852,-0.159853 0.07643,0.190997 0.06703,0.4192 -0.02089,0.507119 -0.08792,0.08792 -0.150453,-0.06835 -0.138964,-0.347266 z m 6.925002,-0.507118 c 0.0029,-0.582083 0.05712,-0.789055 0.120406,-0.459936 0.06329,0.329118 0.06088,0.805368 -0.0053,1.058333 -0.06622,0.252965 -0.118003,-0.01631 -0.115066,-0.598397 z M 16.65385,19.833213 c 0.263389,-0.291041 0.53842,-0.529166 0.611181,-0.529166 0.07276,0 -0.08321,0.238125 -0.346598,0.529166 -0.263389,0.291042 -0.53842,0.529167 -0.611181,0.529167 -0.07276,0 0.08321,-0.238125 0.346598,-0.529167 z m 9.235278,-0.06615 -0.504028,-0.595313 0.595312,0.504028 c 0.559447,0.473662 0.715762,0.686597 0.504028,0.686597 -0.05021,0 -0.318097,-0.267891 -0.595312,-0.595312 z M 18.567669,18.47746 c 0.179476,-0.180821 0.39297,-0.262115 0.474432,-0.180653 0.08146,0.08146 -0.06538,0.229406 -0.326319,0.328766 -0.377084,0.143585 -0.407475,0.113194 -0.148113,-0.148113 z m 1.99382,-0.679689 c 0.257431,-0.06708 0.614619,-0.06267 0.79375,0.0098 0.179132,0.07248 -0.03149,0.127362 -0.468056,0.12197 -0.436562,-0.0054 -0.583125,-0.06469 -0.325694,-0.131774 z m -7.214931,-1.536438 c 0.493655,-0.509323 0.957086,-0.926041 1.029847,-0.926041 0.07276,0 -0.271608,0.416718 -0.765263,0.926041 -0.493656,0.509323 -0.957087,0.926042 -1.029847,0.926042 -0.07276,0 0.271608,-0.416719 0.765263,-0.926042 z m 15.854975,-0.06615 -0.641433,-0.727604 0.727604,0.641433 c 0.680055,0.599516 0.848939,0.813776 0.641433,0.813776 -0.04739,0 -0.374816,-0.327422 -0.727604,-0.727605 z m -8.508049,-3.168314 c 0.475549,-0.05889 1.189924,-0.05767 1.5875,0.0027 0.397576,0.06037 0.0085,0.108551 -0.864634,0.107066 -0.873125,-0.0015 -1.198415,-0.05088 -0.722866,-0.109766 z"
         id="path7" /><path
         style="fill:#b6e3fd"
         d="m 12.447245,31.189803 c -4.351774,-5.789139 -2.348223,-13.869011 4.206605,-16.9643 1.7476,-0.825243 2.017045,-0.874581 4.776222,-0.874581 2.84791,0 2.976695,0.02597 4.940197,0.99639 6.795906,3.358719 8.427276,12.09024 3.286572,17.590589 l -0.803671,0.859896 h -7.598587 -7.598587 z m 0.185945,-2.030027 c -0.617684,-1.453018 -0.602363,-5.350538 0.02834,-7.209896 0.746146,-2.199686 1.569454,-3.705776 2.974013,-5.440406 l 1.272107,-1.571052 -1.422684,1.181779 c -4.269276,3.546355 -5.473757,8.510114 -3.163757,13.038087 0.654743,1.283402 0.857337,1.284368 0.311979,0.0015 z m 8.612337,0.354543 c 0.146603,-0.09061 0.327051,-0.06684 0.400997,0.0528 0.07395,0.119648 0.647301,0.204674 1.274122,0.188948 0.89871,-0.02255 1.201958,-0.15352 1.43425,-0.619452 0.162017,-0.324973 0.810309,-0.854541 1.44065,-1.176819 1.67273,-0.855226 2.237611,-1.764875 2.224849,-3.582756 -0.03004,-4.279716 -4.671298,-7.723013 -8.504827,-6.309638 -1.8068,0.666145 -3.168559,1.914861 -4.057609,3.720778 -1.412748,2.869699 -0.854595,4.941601 1.672663,6.209039 0.683661,0.342861 1.243019,0.783429 1.243019,0.97904 0,0.195612 0.174195,0.453141 0.387098,0.572288 0.433091,0.24237 2.073811,0.219767 2.484788,-0.03423 z M 16.80703,24.97054 c 0.01269,-0.308225 0.07539,-0.370919 0.159852,-0.159853 0.07643,0.190997 0.06703,0.4192 -0.02089,0.507119 -0.08792,0.08792 -0.150453,-0.06835 -0.138964,-0.347266 z"
         id="path6" /><path
         style="fill:#dc9252"
         d="m 16.702929,38.949858 c 2.500847,-0.04345 6.668035,-0.04352 9.260416,-1.64e-4 2.592382,0.04335 0.546234,0.0789 -4.546995,0.07899 -5.093229,9.1e-5 -7.214269,-0.03538 -4.713421,-0.07883 z m -5.166678,-1.124977 c 0,-0.363803 0.06005,-0.512631 0.133452,-0.33073 0.0734,0.181901 0.0734,0.479558 0,0.661459 -0.0734,0.181901 -0.133452,0.03307 -0.133452,-0.330729 z M 31.094529,37.67054 c 0.0127,-0.308224 0.07539,-0.370919 0.159853,-0.159852 0.07643,0.190996 0.06703,0.419199 -0.02089,0.507118 -0.08792,0.08792 -0.150453,-0.06835 -0.138965,-0.347266 z M 13.081975,35.179047 c 0,-0.291042 0.107916,-0.529167 0.239813,-0.529167 0.131897,0 0.177542,0.238125 0.101433,0.529167 -0.07611,0.291042 -0.184025,0.529167 -0.239813,0.529167 -0.05579,0 -0.101433,-0.238125 -0.101433,-0.529167 z m 0.04988,-1.502168 c 0.245715,-0.06483 0.499794,-0.318906 0.564621,-0.56462 0.107812,-0.408641 0.120485,-0.407579 0.148559,0.01244 0.02831,0.423535 0.662537,0.464939 8.166629,0.533133 l 8.135938,0.07394 -8.73125,0.03149 c -4.802188,0.01732 -8.530211,-0.02155 -8.284497,-0.08638 z m 5.456762,-6.880656 c 0.190997,-0.07643 0.4192,-0.06703 0.507118,0.02089 0.08792,0.08792 -0.06835,0.150453 -0.347265,0.138964 -0.308225,-0.01269 -0.370919,-0.07539 -0.159853,-0.159852 z"
         id="path5" /><path
         style="fill:#d2833e"
         d="m 12.049549,36.634256 c 0.361243,-0.36138 17.554595,-0.507516 18.169302,-0.154432 0.311565,0.178961 -2.560991,0.287952 -8.987935,0.341019 -6.297186,0.052 -9.357688,-0.0102 -9.181367,-0.186587 z"
         id="path4" /><path
         style="fill:#ca7e3b"
         d="M 11.863408,38.508931 C 11.783,38.29939 11.756392,37.851398 11.804281,37.513393 l 0.08707,-0.614554 h 9.525 9.525 v 0.926042 0.926041 l -9.465873,0.0695 c -8.039622,0.05902 -9.4879,0.01209 -9.612069,-0.311487 z m 1.237163,-2.469988 c 0.01023,-0.109141 0.103489,-0.413655 0.207246,-0.6767 0.176378,-0.447149 0.70349,-0.476789 8.10269,-0.455623 4.352723,0.01245 7.935608,0.04908 7.961969,0.08139 0.02636,0.03231 0.130274,0.326639 0.230918,0.654061 l 0.18299,0.595313 h -8.352205 c -4.593712,0 -8.343836,-0.0893 -8.333608,-0.198438 z m 0.775154,-2.844271 c 0,-0.343654 1.028935,-0.396875 7.672916,-0.396875 6.643982,0 7.672917,0.05322 7.672917,0.396875 0,0.343654 -1.028935,0.396875 -7.672917,0.396875 -6.643981,0 -7.672916,-0.05322 -7.672916,-0.396875 z"
         id="path3" /><path
         style="fill:#be7738"
         d="m 13.412704,34.727739 c -0.327422,-0.06307 -0.595312,-0.284975 -0.595312,-0.493136 0,-0.320478 1.317649,-0.378473 8.598958,-0.378473 5.347199,0 8.598958,0.09653 8.598958,0.255275 0,0.683732 -1.309482,0.801684 -8.515418,0.767027 -4.120531,-0.01982 -7.759764,-0.08763 -8.087186,-0.150693 z"
         id="path2" /><path
         style="fill:#4d4d4d"
         d="m 20.490308,27.863408 c 0,-0.218481 0.805626,-1.680194 0.926042,-1.680194 0.120416,0 0.926041,1.461713 0.926041,1.680194 0,0.06544 -0.416718,0.118972 -0.926041,0.118972 -0.509323,0 -0.926042,-0.05354 -0.926042,-0.118972 z m -3.001701,-1.634882 c -0.593956,-0.656314 -0.551544,-1.783734 0.09128,-2.426562 1.530437,-1.530437 3.751286,0.533831 2.498539,2.322378 -0.519246,0.741328 -1.960737,0.799316 -2.589823,0.104184 z m 5.291667,0 c -0.963601,-1.064766 -0.143484,-2.955729 1.281909,-2.955729 1.448814,0 2.291444,2.046481 1.235937,3.001701 -0.642219,0.581201 -1.97224,0.556917 -2.517846,-0.04597 z"
         id="path1" /></g></g></svg>
